/* XPM */
static char *xpm [] = {
"64 64 2 1",
"0 c None",
": c #FF00FF",
"0000000000000000000000000000000000000000000000000000000000000000",
"0000000000000000000000000000000000000000000000000000000000000000",
"0000000000000000000000000000000000000000000000000000000000000000",
"0000000000000000000000000000000000000000000000000000000000000000",
"0000000000000000000000000000000000000000000000000000000000000000",
"0000000000000000000000000000000000000000000000000000000000000000",
"0000000000000000000000000000000000000000000000000000000000000000",
"000000000000000::::::::::::::::::::::::::::::::::000000000000000",
"00000000000000::::::::::::::::::::::::::::::::::::00000000000000",
"0000000000000::::::::::::::::::::::::::::::::::::::0000000000000",
"000000000000::::::::::::::::::::::::::::::::::::::::000000000000",
"000000000000:::::000000000000000000000000000000:::::000000000000",
"000000000000::::00000000000000000000000000000000::::000000000000",
"000000000000::::00000000000000000000000000000000::::000000000000",
"000000000000::::00000000000000000000000000000000::::000000000000",
"000000000000::::00000000000000000000000000000000::::000000000000",
"000000000000::::00000000000000000000000000000000::::000000000000",
"000000000000::::00000000000000000000000000000000::::000000000000",
"000000000000::::00000000000000000000000000000000::::000000000000",
"000000000000::::00000000000000000000000000000000::::000000000000",
"000000000000::::00000000000000000000000000000000::::000000000000",
"000000000000::::00000000000000000000000000000000::::000000000000",
"000000000000::::00000000000000000000000000000000::::000000000000",
"000000000000::::00000000000000000000000000000000::::000000000000",
"000000000000::::00000000000000000000000000000000::::000000000000",
"000000000000::::00000000000000000000000000000000::::000000000000",
"000000000000::::00000000000000000000000000000000::::000000000000",
"000000000000::::00000000000000000000000000000000::::000000000000",
"000000000000::::00000000000000000000000000000000::::000000000000",
"000000000000::::00000000000000000000000000000000::::000000000000",
"000000000000::::00000000000000000000000000000000::::000000000000",
"000000000000:::::000000000000000000000000000000:::::000000000000",
"000000000000::::::::::::::::::::::::::::::::::::::::000000000000",
"0000000000000::::::::::::::::::::::::::::::::::::::0000000000000",
"00000000000000::::::::::::::::::::::::::::::::::::00000000000000",
"000000000000000::::::::::::::::::::::::::::::::::000000000000000",
"0000000000000000000000000000000000000000000000000000000000000000",
"0000000000000000000000000000000000000000000000000000000000000000",
"0000000000000000000000000000000000000000000000000000000000000000",
"0000000000000000000000000000000000000000000000000000000000000000",
"0000000000000000000000000000000000000000000000000000000000000000",
"0000000000000000000000000000000000000000000000000000000000000000",
"0000000000000000000000000000000000000000000000000000000000000000",
"0000000000000000000000000000000000000000000000000000000000000000",
"0000000000000000000000000000000000000000000000000000000000000000",
"0000000000000000000000000000000000000000000000000000000000000000",
"0000000000000000000000000000000000000000000000000000000000000000",
"0000000000000000000000000000000000000000000000000000000000000000",
"0000000000000000000000000000000000000000000000000000000000000000",
"0000000000000000000000000000000000000000000000000000000000000000",
"0000000000000000000000000000000000000000000000000000000000000000",
"0000000000000000000000000000000000000000000000000000000000000000",
"0000000000000000000000000000000000000000000000000000000000000000",
"0000000000000000000000000000000000000000000000000000000000000000",
"0000000000000000000000000000000000000000000000000000000000000000",
"0000000000000000000000000000000000000000000000000000000000000000",
"0000000000000000000000000000000000000000000000000000000000000000",
"0000000000000000000000000000000000000000000000000000000000000000",
"0000000000000000000000000000000000000000000000000000000000000000",
"0000000000000000000000000000000000000000000000000000000000000000",
"0000000000000000000000000000000000000000000000000000000000000000",
"0000000000000000000000000000000000000000000000000000000000000000",
"0000000000000000000000000000000000000000000000000000000000000000",
"0000000000000000000000000000000000000000000000000000000000000000",
};