/* XPM */
static char *xpm [] = {
"64 64 2 1",
"0 c None",
": c #FF0000",
"0000000000000000000000000000000000000000000000000000000000000000",
"0000000000000000000000000000000000000000000000000000000000000000",
"0000000000000000000000000000000000000000000000000000000000000000",
"0000000000000000000000000000000000000000000000000000000000000000",
"0000000000000000000000000000000000000000000000000000000000000000",
"0000000000000000000000000000000000000000000000000000000000000000",
"000000000000000000000000000000::::::0000000000000000000000000000",
"00000000000000000000000000::::00::::0000000000000000000000000000",
"0000000000000000000000::::000000::::0000000000000000000000000000",
"000000000000000000::::0000000000::::0000000000000000000000000000",
"0000000000000000::::000000000000::::0000000000000000000000000000",
"0000000000000::::000000000000000::::0000000000000000000000000000",
"0000000000::::000000000000000000::::0000000000000000000000000000",
"0000000::::000000000000000000000::::0000000000000000000000000000",
"00000000000000000000000000000000::::0000000000000000000000000000",
"00000000000000000000000000000000::::0000000000000000000000000000",
"00000000000000000000000000000000::::0000000000000000000000000000",
"00000000000000000000000000000000::::0000000000000000000000000000",
"00000000000000000000000000000000::::0000000000000000000000000000",
"00000000000000000000000000000000::::0000000000000000000000000000",
"00000000000000000000000000000000::::0000000000000000000000000000",
"00000000000000000000000000000000::::0000000000000000000000000000",
"00000000000000000000000000000000::::0000000000000000000000000000",
"00000000000000000000000000000000::::0000000000000000000000000000",
"00000000000000000000000000000000::::0000000000000000000000000000",
"00000000000000000000000000000000::::0000000000000000000000000000",
"00000000000000000000000000000000::::0000000000000000000000000000",
"00000000000000000000000000000000::::0000000000000000000000000000",
"00000000000000000000000000000000::::0000000000000000000000000000",
"00000000000000000000000000000000::::0000000000000000000000000000",
"00000000000000000000000000000000::::0000000000000000000000000000",
"00000000000000000000000000000000::::0000000000000000000000000000",
"00000000000000000000000000000000::::0000000000000000000000000000",
"00000000000000000000000000000000::::0000000000000000000000000000",
"00000000000000000000000000000000::::0000000000000000000000000000",
"00000000000000000000000000000000::::0000000000000000000000000000",
"00000000000000000000000000000000::::0000000000000000000000000000",
"00000000000000000000000000000000::::0000000000000000000000000000",
"00000000000000000000000000000000::::0000000000000000000000000000",
"00000000000000000000000000000000::::0000000000000000000000000000",
"00000000000000000000000000000000::::0000000000000000000000000000",
"00000000000000000000000000000000::::0000000000000000000000000000",
"00000000000000000000000000000000::::0000000000000000000000000000",
"00000000000000000000000000000000::::0000000000000000000000000000",
"00000000000000000000000000000000::::0000000000000000000000000000",
"00000000000000000000000000000000::::0000000000000000000000000000",
"00000000000000000000000000000000::::0000000000000000000000000000",
"00000000000000000000000000000000::::0000000000000000000000000000",
"00000000000000000000000000000000::::0000000000000000000000000000",
"00000000000000000000000000000000::::0000000000000000000000000000",
"00000000000000000000000000000000::::0000000000000000000000000000",
"00000000000000000000000000000000::::0000000000000000000000000000",
"00000000000000000000000000000000::::0000000000000000000000000000",
"00000000000000000000000000000000::::0000000000000000000000000000",
"00000000000000000000000000000000::::0000000000000000000000000000",
"00000000000000000000000000000000::::0000000000000000000000000000",
"00000000000000000000000000000000::::0000000000000000000000000000",
"0000::::::::::::::::::::::::::::::::::::::::::::::::::::::::0000",
"0000000000000000000000000000000000000000000000000000000000000000",
"0000000000000000000000000000000000000000000000000000000000000000",
"0000000000000000000000000000000000000000000000000000000000000000",
"0000000000000000000000000000000000000000000000000000000000000000",
"0000000000000000000000000000000000000000000000000000000000000000",
"0000000000000000000000000000000000000000000000000000000000000000"
};
