/* XPM */
static char * 3_xpm[] = {
"8 15 2 1",
" 	c #D56B3F",
".	c #FFFFFF",
"  ....  ",
"  ....  ",
"      ..",
"      ..",
"      ..",
"      ..",
"      ..",
"   .....",
"      ..",
"      ..",
"      ..",
"      ..",
"      ..",
"  ....  ",
"  ....  "};