/* XPM */
static char * xpm[] = {
"64 64 3 1",
"0 c None",
": c #FFD000",
". c #FFF88A",
"0000000000000000000000000000000000000000000000000000000000000000",
"0000000000000000000000000000000000000000000000000000000000000000",
"0000000000000000000000000000000000000000000000000000000000000000",
"00000000000000000000000000000::::0000000000000000000000000000000",
"000000000000000000000000000:......:00000000000000000000000000000",
"0000000000000000000000000:..........:000000000000000000000000000",
"000000000000000000000000:............:00000000000000000000000000",
"00000000000000000000000:..............:0000000000000000000000000",
"0000000000000000000000:................:000000000000000000000000",
"000000000000000000000:..................:00000000000000000000000",
"00000000000000000000:....................:0000000000000000000000",
"0000000000000000000:......................:000000000000000000000",
"000000000000000000:........................:00000000000000000000",
"00000000000000000:..........................:0000000000000000000",
"0000000000000000:............................:000000000000000000",
"000000000000000:..............................:00000000000000000",
"00000000000000:................................:0000000000000000",
"00000000000000:................................:0000000000000000",
"0000000000000:..................................:000000000000000",
"0000000000000:......::::::::::::::..............:000000000000000",
"000000000000:....::::::::::::::::::::............:00000000000000",
"000000000000:...::::::::::::::::::::::...........:00000000000000",
"000000000000:..::::::::::::::::::::::::..........:00000000000000",
"00000000000:..:::::::::::::::::::::::::::.........:0000000000000",
"00000000000:..:::::::::::::::::::::::::::.........:0000000000000",
"00000000000:..:::::::::::::::::::::::::::.........:0000000000000",
"00000000000:..:::::::::::::::::::::::::::.........:0000000000000",
"00000000000:..:::::::::::::::::::::::::::.........:0000000000000",
"00000000000:..:::::::::::::::::::::::::::.........:0000000000000",
"00000000000:..:::::::::::::::::::::::::::.........:0000000000000",
"00000000000:...::::::::::::::::::::::::...........:0000000000000",
"000000000000:...:::::::::::::::::::::............:00000000000000",
"0000000000000:......::::::::::::::..............:000000000000000",
"0000000000000:..................................:000000000000000",
"00000000000000:................................:0000000000000000",
"00000000000000:................................:0000000000000000",
"000000000000000:..............................:00000000000000000",
"000000000000000:..............................:00000000000000000",
"0000000000000000:............................:000000000000000000",
"00000000000000000:..........................:0000000000000000000",
"000000000000000000:........................:00000000000000000000",
"0000000000000000000:......................:000000000000000000000",
"00000000000000000000:....................:0000000000000000000000",
"000000000000000000000:..................:00000000000000000000000",
"0000000000000000000000:................:000000000000000000000000",
"00000000000000000000000:..............:0000000000000000000000000",
"000000000000000000000000:............:00000000000000000000000000",
"0000000000000000000000000:..........:000000000000000000000000000",
"00000000000000000000000000:........:0000000000000000000000000000",
"000000000000000000000000000:......:00000000000000000000000000000",
"0000000000000000000000000000:....:000000000000000000000000000000",
"00000000000000000000000000000:..:0000000000000000000000000000000",
"000000000000000000000000000000::::000000000000000000000000000000",
"0000000000000000000000000000000::0000000000000000000000000000000",
"00000000000000000000000000000000::000000000000000000000000000000",
"000000000000000000000000000000000::00000000000000000000000000000",
"0000000000000000000000000000000000::0000000000000000000000000000",
"00000000000000000000000000000000000::000000000000000000000000000",
"000000000000000000000000000000000000::00000000000000000000000000",
"0000000000000000000000000000000000000::0000000000000000000000000",
"00000000000000000000000000000000000000::000000000000000000000000",
"000000000000000000000000000000000000000:::0000000000000000000000",
"00000000000000000000000000000000000000000::::0000000000000000000",
"0000000000000000000000000000000000000000000000000000000000000000",
"0000000000000000000000000000000000000000000000000000000000000000"
};
