/* XPM */
static char * xpm[] = {
"64 64 3 1",
"A c #F3D6A4",
"B c #E2C08D",
"C c #CFA670",
"AAAABBBBCCCCBBBBAAAABBBBCCCCBBBBAAAABBBBCCCCBBBBAAAABBBBCCCCBBBB",
"AABBBBCCCCBBBBAAAABBBBCCCCBBBBAAAABBBBCCCCBBBBAAAABBBBCCCCBBBBAA",
"BBBBCCCCBBBBAAAABBBBCCCCBBBBAAAABBBBCCCCBBBBAAAABBBBCCCCBBBBAAAA",
"BBCCCCBBBBAAAABBBBCCCCBBBBAAAABBBBCCCCBBBBAAAABBBBCCCCBBBBAAAABB",
"CCCCBBBBAAAABBBBCCCCBBBBAAAABBBBCCCCBBBBAAAABBBBCCCCBBBBAAAABBBB",
"CCBBBBAAAABBBBCCCCBBBBAAAABBBBCCCCBBBBAAAABBBBCCCCBBBBAAAABBBBCC",
"BBBBAAAABBBBCCCCBBBBAAAABBBBCCCCBBBBAAAABBBBCCCCBBBBAAAABBBBCCCC",
"BBAAAABBBBCCCCBBBBAAAABBBBCCCCBBBBAAAABBBBCCCCBBBBAAAABBBBCCCCBB",
"BAAAABBBBCCCCBBBBAAAABBBBCCCCBBBBAAAABBBBCCCCBBBBAAAABBBBCCCCBBB",
"AAAABBBBCCCCBBBBAAAABBBBCCCCBBBBAAAABBBBCCCCBBBBAAAABBBBCCCCBBBB",
"AABBBBCCCCBBBBAAAABBBBCCCCBBBBAAAABBBBCCCCBBBBAAAABBBBCCCCBBBBAA",
"BBBBCCCCBBBBAAAABBBBCCCCBBBBAAAABBBBCCCCBBBBAAAABBBBCCCCBBBBAAAA",
"BBCCCCBBBBAAAABBBBCCCCBBBBAAAABBBBCCCCBBBBAAAABBBBCCCCBBBBAAAABB",
"CCCCBBBBAAAABBBBCCCCBBBBAAAABBBBCCCCBBBBAAAABBBBCCCCBBBBAAAABBBB",
"CCBBBBAAAABBBBCCCCBBBBAAAABBBBCCCCBBBBAAAABBBBCCCCBBBBAAAABBBBCC",
"BBBBAAAABBBBCCCCBBBBAAAABBBBCCCCBBBBAAAABBBBCCCCBBBBAAAABBBBCCCC",
"BBAAAABBBBCCCCBBBBAAAABBBBCCCCBBBBAAAABBBBCCCCBBBBAAAABBBBCCCCBB",
"BAAAABBBBCCCCBBBBAAAABBBBCCCCBBBBAAAABBBBCCCCBBBBAAAABBBBCCCCBBB",
"AAAABBBBCCCCBBBBAAAABBBBCCCCBBBBAAAABBBBCCCCBBBBAAAABBBBCCCCBBBB",
"AABBBBCCCCBBBBAAAABBBBCCCCBBBBAAAABBBBCCCCBBBBAAAABBBBCCCCBBBBAA",
"BBBBCCCCBBBBAAAABBBBCCCCBBBBAAAABBBBCCCCBBBBAAAABBBBCCCCBBBBAAAA",
"BBCCCCBBBBAAAABBBBCCCCBBBBAAAABBBBCCCCBBBBAAAABBBBCCCCBBBBAAAABB",
"CCCCBBBBAAAABBBBCCCCBBBBAAAABBBBCCCCBBBBAAAABBBBCCCCBBBBAAAABBBB",
"CCBBBBAAAABBBBCCCCBBBBAAAABBBBCCCCBBBBAAAABBBBCCCCBBBBAAAABBBBCC",
"BBBBAAAABBBBCCCCBBBBAAAABBBBCCCCBBBBAAAABBBBCCCCBBBBAAAABBBBCCCC",
"BBAAAABBBBCCCCBBBBAAAABBBBCCCCBBBBAAAABBBBCCCCBBBBAAAABBBBCCCCBB",
"BAAAABBBBCCCCBBBBAAAABBBBCCCCBBBBAAAABBBBCCCCBBBBAAAABBBBCCCCBBB",
"AAAABBBBCCCCBBBBAAAABBBBCCCCBBBBAAAABBBBCCCCBBBBAAAABBBBCCCCBBBB",
"AABBBBCCCCBBBBAAAABBBBCCCCBBBBAAAABBBBCCCCBBBBAAAABBBBCCCCBBBBAA",
"BBBBCCCCBBBBAAAABBBBCCCCBBBBAAAABBBBCCCCBBBBAAAABBBBCCCCBBBBAAAA",
"BBCCCCBBBBAAAABBBBCCCCBBBBAAAABBBBCCCCBBBBAAAABBBBCCCCBBBBAAAABB",
"CCCCBBBBAAAABBBBCCCCBBBBAAAABBBBCCCCBBBBAAAABBBBCCCCBBBBAAAABBBB",
"CCBBBBAAAABBBBCCCCBBBBAAAABBBBCCCCBBBBAAAABBBBCCCCBBBBAAAABBBBCC",
"BBBBAAAABBBBCCCCBBBBAAAABBBBCCCCBBBBAAAABBBBCCCCBBBBAAAABBBBCCCC",
"BBAAAABBBBCCCCBBBBAAAABBBBCCCCBBBBAAAABBBBCCCCBBBBAAAABBBBCCCCBB",
"BAAAABBBBCCCCBBBBAAAABBBBCCCCBBBBAAAABBBBCCCCBBBBAAAABBBBCCCCBBB",
"AAAABBBBCCCCBBBBAAAABBBBCCCCBBBBAAAABBBBCCCCBBBBAAAABBBBCCCCBBBB",
"AABBBBCCCCBBBBAAAABBBBCCCCBBBBAAAABBBBCCCCBBBBAAAABBBBCCCCBBBBAA",
"BBBBCCCCBBBBAAAABBBBCCCCBBBBAAAABBBBCCCCBBBBAAAABBBBCCCCBBBBAAAA",
"BBCCCCBBBBAAAABBBBCCCCBBBBAAAABBBBCCCCBBBBAAAABBBBCCCCBBBBAAAABB",
"CCCCBBBBAAAABBBBCCCCBBBBAAAABBBBCCCCBBBBAAAABBBBCCCCBBBBAAAABBBB",
"CCBBBBAAAABBBBCCCCBBBBAAAABBBBCCCCBBBBAAAABBBBCCCCBBBBAAAABBBBCC",
"BBBBAAAABBBBCCCCBBBBAAAABBBBCCCCBBBBAAAABBBBCCCCBBBBAAAABBBBCCCC",
"BBAAAABBBBCCCCBBBBAAAABBBBCCCCBBBBAAAABBBBCCCCBBBBAAAABBBBCCCCBB",
"BAAAABBBBCCCCBBBBAAAABBBBCCCCBBBBAAAABBBBCCCCBBBBAAAABBBBCCCCBBB",
"AAAABBBBCCCCBBBBAAAABBBBCCCCBBBBAAAABBBBCCCCBBBBAAAABBBBCCCCBBBB",
"AABBBBCCCCBBBBAAAABBBBCCCCBBBBAAAABBBBCCCCBBBBAAAABBBBCCCCBBBBAA",
"BBBBCCCCBBBBAAAABBBBCCCCBBBBAAAABBBBCCCCBBBBAAAABBBBCCCCBBBBAAAA",
"BBCCCCBBBBAAAABBBBCCCCBBBBAAAABBBBCCCCBBBBAAAABBBBCCCCBBBBAAAABB",
"CCCCBBBBAAAABBBBCCCCBBBBAAAABBBBCCCCBBBBAAAABBBBCCCCBBBBAAAABBBB",
"CCBBBBAAAABBBBCCCCBBBBAAAABBBBCCCCBBBBAAAABBBBCCCCBBBBAAAABBBBCC",
"BBBBAAAABBBBCCCCBBBBAAAABBBBCCCCBBBBAAAABBBBCCCCBBBBAAAABBBBCCCC",
"BBAAAABBBBCCCCBBBBAAAABBBBCCCCBBBBAAAABBBBCCCCBBBBAAAABBBBCCCCBB",
"BAAAABBBBCCCCBBBBAAAABBBBCCCCBBBBAAAABBBBCCCCBBBBAAAABBBBCCCCBBB",
"AAAABBBBCCCCBBBBAAAABBBBCCCCBBBBAAAABBBBCCCCBBBBAAAABBBBCCCCBBBB",
"AABBBBCCCCBBBBAAAABBBBCCCCBBBBAAAABBBBCCCCBBBBAAAABBBBCCCCBBBBAA",
"BBBBCCCCBBBBAAAABBBBCCCCBBBBAAAABBBBCCCCBBBBAAAABBBBCCCCBBBBAAAA",
"BBCCCCBBBBAAAABBBBCCCCBBBBAAAABBBBCCCCBBBBAAAABBBBCCCCBBBBAAAABB",
"CCCCBBBBAAAABBBBCCCCBBBBAAAABBBBCCCCBBBBAAAABBBBCCCCBBBBAAAABBBB",
"CCBBBBAAAABBBBCCCCBBBBAAAABBBBCCCCBBBBAAAABBBBCCCCBBBBAAAABBBBCC",
"BBBBAAAABBBBCCCCBBBBAAAABBBBCCCCBBBBAAAABBBBCCCCBBBBAAAABBBBCCCC",
"BBAAAABBBBCCCCBBBBAAAABBBBCCCCBBBBAAAABBBBCCCCBBBBAAAABBBBCCCCBB",
"BAAAABBBBCCCCBBBBAAAABBBBCCCCBBBBAAAABBBBCCCCBBBBAAAABBBBCCCCBBB",
"AAAABBBBCCCCBBBBAAAABBBBCCCCBBBBAAAABBBBCCCCBBBBAAAABBBBCCCCBBBB",
};